<?xml version="1.0" encoding="UTF-8" standalone="no"?>
<!-- Created with Inkscape (http://www.inkscape.org/) -->

<svg
   width="297mm"
   height="420mm"
   viewBox="0 0 297 420"
   version="1.1"
   id="svg19810"
   inkscape:version="1.2.2 (b0a84865, 2022-12-01)"
   sodipodi:docname="LightShadeParts.svg"
   xmlns:inkscape="http://www.inkscape.org/namespaces/inkscape"
   xmlns:sodipodi="http://sodipodi.sourceforge.net/DTD/sodipodi-0.dtd"
   xmlns="http://www.w3.org/2000/svg"
   xmlns:svg="http://www.w3.org/2000/svg">
  <sodipodi:namedview
     id="namedview19812"
     pagecolor="#ffffff"
     bordercolor="#000000"
     borderopacity="0.25"
     inkscape:showpageshadow="2"
     inkscape:pageopacity="0.0"
     inkscape:pagecheckerboard="0"
     inkscape:deskcolor="#d1d1d1"
     inkscape:document-units="mm"
     showgrid="false"
     inkscape:zoom="0.55464244"
     inkscape:cx="590.4705"
     inkscape:cy="526.4653"
     inkscape:window-width="1512"
     inkscape:window-height="828"
     inkscape:window-x="0"
     inkscape:window-y="38"
     inkscape:window-maximized="1"
     inkscape:current-layer="layer1" />
  <defs
     id="defs19807" />
  <g
     inkscape:label="Layer 1"
     inkscape:groupmode="layer"
     id="layer1">
    <path
       id="rect695-0"
       style="fill:none;stroke:#000000;stroke-width:0.02;stroke-dasharray:none"
       d="m 128.43836,6.0500647 v 3.9997583 h 95.99988 v 96.000327 h 3.99976 1.50016 4.00027 V 70.550003 h 20.99976 v 23.00015 h 4.00027 1.49965 4.00027 v -23.00015 h 20.99975 v 10.50013 h 4.00028 1.49965 4.00027 v -25.00002 h -4.00027 v 20.99975 h -1.49965 v -20.99975 h -4.00028 v 10.49962 h -20.99975 v -22.99963 h -4.00027 v 22.99963 4.00027 18.99987 h -1.49965 v -45.99977 h -4.00027 v 22.99963 h -20.99976 v -35.49964 h -4.00027 v 35.49964 4.00027 31.499867 H 228.438 V 6.0500647 Z" />
    <path
       id="rect695-0-4"
       style="fill:none;stroke:#000000;stroke-width:0.02;stroke-dasharray:none"
       d="m 115.15932,48.875355 v 3.99976 h 95.99988 v 96.000305 h 3.99976 1.50016 4.00027 v -35.50016 h 20.99976 v 23.00015 h 4.00027 1.49965 4.00027 v -23.00015 h 20.99975 v 10.50013 h 4.00028 1.49965 4.00027 V 98.875379 h -4.00027 v 20.999741 h -1.49965 V 98.875379 h -4.00028 V 109.37499 H 251.15934 V 86.375398 h -4.00027 v 22.999592 4.00027 18.99986 h -1.49965 V 86.375398 h -4.00027 V 109.37499 H 220.65939 V 73.875385 h -4.00027 v 35.499605 4.00027 31.49988 h -1.50016 V 48.875355 Z" />
    <path
       id="rect695-0-4-8"
       style="fill:none;stroke:#000000;stroke-width:0.02;stroke-dasharray:none"
       d="m 100.98758,91.752594 v 3.99976 h 95.99989 v 96.000306 h 3.99977 1.50015 4.00028 V 156.2525 h 20.99974 v 23.00015 h 4.00027 1.49965 4.00027 V 156.2525 h 20.99975 v 10.50013 h 4.00028 1.49965 4.00027 v -25.00002 h -4.00027 v 20.99975 h -1.49965 v -20.99975 h -4.00028 v 10.49962 H 236.9876 v -22.9996 h -4.00027 v 22.9996 4.00027 18.99986 h -1.49965 v -45.99973 h -4.00027 v 22.9996 h -20.99974 v -35.49961 h -4.00028 v 35.49961 4.00027 31.49988 h -1.50015 V 91.752594 Z" />
    <path
       id="rect695-0-3"
       style="fill:none;stroke:#000000;stroke-width:0.02;stroke-dasharray:none"
       d="m 163.32961,197.69452 v -3.99976 H 67.329727 V 97.694438 h -3.99976 -1.50016 -4.00027 v 35.500142 h -20.99976 v -23.00015 h -4.00027 -1.49965 -4.00027 v 23.00015 H 6.3298364 V 122.69445 H 2.3295567 0.82990668 -3.1703632 v 25.00002 H 0.82990668 V 126.69472 H 2.3295567 v 20.99975 H 6.3298364 V 137.19485 H 27.329587 v 22.99963 h 4.00027 v -22.99963 -4.00027 -18.99987 h 1.49965 v 45.99977 h 4.00027 v -22.99963 h 20.99976 v 35.49964 h 4.00027 v -35.49964 -4.00027 -31.49987 h 1.50016 v 95.99981 z" />
    <path
       id="rect695-0-4-9"
       style="fill:none;stroke:#000000;stroke-width:0.02;stroke-dasharray:none"
       d="m 176.60865,154.86923 v -3.99976 H 80.608767 V 54.869168 h -3.99976 -1.50016 -4.00027 v 35.50016 h -20.99976 v -23.00015 h -4.00027 -1.49965 -4.00027 v 23.00015 h -20.99975 v -10.50013 h -4.00028 -1.49965 -4.000271 V 104.8692 h 4.000271 V 83.869468 h 1.49965 V 104.8692 h 4.00028 V 94.369598 h 20.99975 v 22.999592 h 4.00027 v -22.999592 -4.00027 -18.99986 h 1.49965 v 45.999722 h 4.00027 V 94.369598 h 20.99976 V 129.8692 h 4.00027 v -35.499602 -4.00027 -31.49988 h 1.50016 v 95.999782 z" />
    <path
       id="rect695-0-4-8-4"
       style="fill:none;stroke:#000000;stroke-width:0.02;stroke-dasharray:none"
       d="m 190.78038,111.99199 v -3.99976 H 94.780497 V 11.991928 h -3.99977 -1.50015 -4.00028 v 35.50016 h -20.99974 v -23.00015 h -4.00027 -1.49965 -4.00027 v 23.00015 h -20.99975 v -10.50013 h -4.00028 -1.49965 -4.00027 v 25.00002 h 4.00027 v -20.99975 h 1.49965 v 20.99975 h 4.00028 v -10.49962 h 20.99975 v 22.9996 h 4.00027 v -22.9996 -4.00027 -18.99986 h 1.49965 v 45.99973 h 4.00027 v -22.9996 h 20.99974 v 35.49961 h 4.00028 v -35.49961 -4.00027 -31.49988 h 1.50015 v 95.999782 z" />
  </g>
</svg>
