<?xml version="1.0" encoding="UTF-8" standalone="no"?>
<!-- Created with Inkscape (http://www.inkscape.org/) -->

<svg
   width="197.19191mm"
   height="102.66543mm"
   viewBox="0 0 197.19191 102.66543"
   version="1.1"
   id="svg7690"
   inkscape:version="1.2.2 (b0a84865, 2022-12-01)"
   sodipodi:docname="LightShadeInitial.svg"
   xmlns:inkscape="http://www.inkscape.org/namespaces/inkscape"
   xmlns:sodipodi="http://sodipodi.sourceforge.net/DTD/sodipodi-0.dtd"
   xmlns="http://www.w3.org/2000/svg"
   xmlns:svg="http://www.w3.org/2000/svg">
  <sodipodi:namedview
     id="namedview7692"
     pagecolor="#ffffff"
     bordercolor="#000000"
     borderopacity="0.25"
     inkscape:showpageshadow="2"
     inkscape:pageopacity="0.0"
     inkscape:pagecheckerboard="0"
     inkscape:deskcolor="#d1d1d1"
     inkscape:document-units="mm"
     showgrid="false"
     inkscape:zoom="0.89973733"
     inkscape:cx="313.42481"
     inkscape:cy="196.72408"
     inkscape:window-width="1512"
     inkscape:window-height="828"
     inkscape:window-x="0"
     inkscape:window-y="38"
     inkscape:window-maximized="1"
     inkscape:current-layer="layer1" />
  <defs
     id="defs7687" />
  <g
     inkscape:label="Layer 1"
     inkscape:groupmode="layer"
     id="layer1"
     transform="translate(-5.4408605,-3.5491642)">
    <path
       id="rect695-0"
       style="fill:none;stroke:#000000;stroke-width:0.02;stroke-dasharray:none"
       d="m 14.056716,6.2044867 v 3.9997603 h 95.999834 v 96.000343 h 3.99976 1.50016 4.00027 V 70.704427 h 20.99976 v 23.00015 h 4.00027 1.49965 4.00027 v -23.00015 h 20.99975 v 10.50013 h 4.00028 1.49965 4.00027 v -25.00002 h -4.00027 v 20.99975 h -1.49965 v -20.99975 h -4.00028 v 10.49962 h -20.99975 v -22.99963 h -4.00027 v 22.99963 4.00027 18.99987 h -1.49965 v -45.99977 h -4.00027 v 22.99963 h -20.99976 v -35.49964 h -4.00027 v 35.49964 4.00027 31.499893 h -1.50016 V 6.2044867 Z" />
    <path
       id="path1079"
       style="fill:none;stroke:#000000;stroke-width:0.02;stroke-dasharray:none"
       d="m 80.470938,13.382271 a 25,25 0 0 0 -25.000032,24.99951 25,25 0 0 0 25.000032,25.00002 25,25 0 0 0 25.000012,-25.00002 25,25 0 0 0 -25.000012,-24.99951 z m 0,19.99981 a 5,5 0 0 1 5.00021,4.9997 5,5 0 0 1 -5.00021,5.00021 5,5 0 0 1 -5.000212,-5.00021 5,5 0 0 1 5.000212,-4.9997 z" />
    <path
       id="path1079-8"
       style="fill:none;stroke:#000000;stroke-width:0.02;stroke-dasharray:none"
       d="m 37.859221,49.365606 a 25,25 0 0 0 -25.000026,24.99951 25,25 0 0 0 25.000026,25.00002 25,25 0 0 0 25.00002,-25.00002 25,25 0 0 0 -25.00002,-24.99951 z m 0,19.99981 a 5,5 0 0 1 5.00021,4.9997 5,5 0 0 1 -5.00021,5.00021 5,5 0 0 1 -5.00021,-5.00021 5,5 0 0 1 5.00021,-4.9997 z" />
    <path
       id="path1079-3"
       style="fill:none;stroke:#000000;stroke-width:0.02;stroke-dasharray:none"
       d="m 177.70254,3.5591642 a 25,25 0 0 0 -5.79603,0.68937 l 2.66908,8.2144788 -3.80441,1.2361 -2.66702,-8.2082788 a 25,25 0 0 0 -9.37204,6.8130188 l 6.97942,5.07101 -2.35128,3.23598 -6.98097,-5.07205 a 25,25 0 0 0 -3.59203,11.02052 h 8.6403 v 3.99976 h -8.6403 a 25,25 0 0 0 3.59151,11.020509 l 6.98149,-5.072039 2.35128,3.235979 -6.97994,5.07101 a 25,25 0 0 0 9.37256,6.81302 l 2.66702,-8.20829 3.80441,1.2361 -2.66908,8.21449 a 25,25 0 0 0 5.79603,0.68885 25,25 0 0 0 5.79809,-0.68213 l -2.67115,-8.22121 3.80442,-1.2361 2.67063,8.22017 a 25,25 0 0 0 9.38134,-6.81612 l -6.99233,-5.07979 2.35127,-3.235979 6.99234,5.080309 a 25,25 0 0 0 3.58479,-11.028779 h -8.64443 v -3.99976 h 8.6403 a 25,25 0 0 0 -3.59203,-11.02052 l -6.98097,5.07205 -2.35127,-3.23598 6.97941,-5.07101 a 25,25 0 0 0 -9.37203,-6.8130188 l -2.66702,8.2082788 -3.80442,-1.2361 2.66908,-8.2144788 a 25,25 0 0 0 -5.79602,-0.68937 z m 0,19.9998188 a 5,5 0 0 1 5.00021,4.99969 5,5 0 0 1 -5.00021,5.00021 5,5 0 0 1 -5.00022,-5.00021 5,5 0 0 1 5.00022,-4.99969 z" />
  </g>
</svg>
