999
"DXF R12 Output" (www.mydxf.blogspot.com)
 0 
SECTION
 2 
HEADER
 9 
$ACADVER
 1 
AC1009
 9 
$EXTMIN
 10 
 0 
 20 
 0 
 9 
$EXTMAX
 10 
 8.5 
 20 
 11 
 0 
ENDSEC
 0 
SECTION
 2 
ENTITIES
0
LINE
8
Layer 1
10
62.930700
20
268.913000
11
60.269961
21
268.735833
0
LINE
8
Layer 1
10
60.269961
20
268.735833
11
57.643170
21
268.277380
0
LINE
8
Layer 1
10
57.643170
20
268.277380
11
60.502950
21
259.475850
0
LINE
8
Layer 1
10
60.502950
20
259.475850
11
55.747680
21
257.930720
0
LINE
8
Layer 1
10
55.747680
20
257.930720
11
52.886360
21
266.737420
0
LINE
8
Layer 1
10
52.886360
20
266.737420
11
50.502431
21
265.535769
0
LINE
8
Layer 1
10
50.502431
20
265.535769
11
48.266335
21
264.092047
0
LINE
8
Layer 1
10
48.266335
20
264.092047
11
46.196454
21
262.419557
0
LINE
8
Layer 1
10
46.196454
20
262.419557
11
44.311170
21
260.531600
0
LINE
8
Layer 1
10
44.311170
20
260.531600
11
51.819240
21
255.076640
0
LINE
8
Layer 1
10
51.819240
20
255.076640
11
48.880400
21
251.031400
0
LINE
8
Layer 1
10
48.880400
20
251.031400
11
41.365610
21
256.491020
0
LINE
8
Layer 1
10
41.365610
20
256.491020
11
40.141427
21
254.114287
0
LINE
8
Layer 1
10
40.141427
20
254.114287
11
39.180789
21
251.627916
0
LINE
8
Layer 1
10
39.180789
20
251.627916
11
38.490779
21
249.053621
0
LINE
8
Layer 1
10
38.490779
20
249.053621
11
38.078480
21
246.413120
0
LINE
8
Layer 1
10
38.078480
20
246.413120
11
47.379700
21
246.413000
0
LINE
8
Layer 1
10
47.379700
20
246.413000
11
47.379700
21
241.413000
0
LINE
8
Layer 1
10
47.379700
20
241.413000
11
38.078500
21
241.413000
0
LINE
8
Layer 1
10
38.078500
20
241.413000
11
38.490799
21
238.772499
0
LINE
8
Layer 1
10
38.490799
20
238.772499
11
39.180809
21
236.198204
0
LINE
8
Layer 1
10
39.180809
20
236.198204
11
40.141447
21
233.711833
0
LINE
8
Layer 1
10
40.141447
20
233.711833
11
41.365630
21
231.335100
0
LINE
8
Layer 1
10
41.365630
20
231.335100
11
48.880420
21
236.794710
0
LINE
8
Layer 1
10
48.880420
20
236.794710
11
51.819260
21
232.749480
0
LINE
8
Layer 1
10
51.819260
20
232.749480
11
44.311190
21
227.294520
0
LINE
8
Layer 1
10
44.311190
20
227.294520
11
46.196474
21
225.406563
0
LINE
8
Layer 1
10
46.196474
20
225.406563
11
48.266355
21
223.734073
0
LINE
8
Layer 1
10
48.266355
20
223.734073
11
50.502451
21
222.290351
0
LINE
8
Layer 1
10
50.502451
20
222.290351
11
52.886380
21
221.088700
0
LINE
8
Layer 1
10
52.886380
20
221.088700
11
55.747700
21
229.895390
0
LINE
8
Layer 1
10
55.747700
20
229.895390
11
60.502970
21
228.350270
0
LINE
8
Layer 1
10
60.502970
20
228.350270
11
57.643190
21
219.548740
0
LINE
8
Layer 1
10
57.643190
20
219.548740
11
60.269981
21
219.090287
0
LINE
8
Layer 1
10
60.269981
20
219.090287
11
62.930720
21
218.913120
0
LINE
8
Layer 1
10
62.930720
20
218.913120
11
65.591464
21
219.090287
0
LINE
8
Layer 1
10
65.591464
20
219.090287
11
68.218260
21
219.548740
0
LINE
8
Layer 1
10
68.218260
20
219.548740
11
65.358480
21
228.350270
0
LINE
8
Layer 1
10
65.358480
20
228.350270
11
70.113750
21
229.895390
0
LINE
8
Layer 1
10
70.113750
20
229.895390
11
72.975070
21
221.088700
0
LINE
8
Layer 1
10
72.975070
20
221.088700
11
75.358999
21
222.290351
0
LINE
8
Layer 1
10
75.358999
20
222.290351
11
77.595095
21
223.734073
0
LINE
8
Layer 1
10
77.595095
20
223.734073
11
79.664976
21
225.406563
0
LINE
8
Layer 1
10
79.664976
20
225.406563
11
81.550260
21
227.294520
0
LINE
8
Layer 1
10
81.550260
20
227.294520
11
74.042190
21
232.749480
0
LINE
8
Layer 1
10
74.042190
20
232.749480
11
76.981550
21
236.794710
0
LINE
8
Layer 1
10
76.981550
20
236.794710
11
84.496330
21
231.335100
0
LINE
8
Layer 1
10
84.496330
20
231.335100
11
85.720380
21
233.711856
0
LINE
8
Layer 1
10
85.720380
20
233.711856
11
86.680888
21
236.198234
0
LINE
8
Layer 1
10
86.680888
20
236.198234
11
87.370772
21
238.772521
0
LINE
8
Layer 1
10
87.370772
20
238.772521
11
87.782950
21
241.413000
0
LINE
8
Layer 1
10
87.782950
20
241.413000
11
78.481700
21
241.413000
0
LINE
8
Layer 1
10
78.481700
20
241.413000
11
78.481700
21
246.413000
0
LINE
8
Layer 1
10
78.481700
20
246.413000
11
87.850100
21
246.413000
0
LINE
8
Layer 1
10
87.850100
20
246.413000
11
87.437500
21
249.064030
0
LINE
8
Layer 1
10
87.437500
20
249.064030
11
86.745005
21
251.648387
0
LINE
8
Layer 1
10
86.745005
20
251.648387
11
85.779786
21
254.144100
0
LINE
8
Layer 1
10
85.779786
20
254.144100
11
84.549010
21
256.529200
0
LINE
8
Layer 1
10
84.549010
20
256.529200
11
76.981520
21
251.031340
0
LINE
8
Layer 1
10
76.981520
20
251.031340
11
74.042160
21
255.076580
0
LINE
8
Layer 1
10
74.042160
20
255.076580
11
81.600360
21
260.567710
0
LINE
8
Layer 1
10
81.600360
20
260.567710
11
79.709445
21
262.464043
0
LINE
8
Layer 1
10
79.709445
20
262.464043
11
77.632470
21
264.143390
0
LINE
8
Layer 1
10
77.632470
20
264.143390
11
75.388020
21
265.592297
0
LINE
8
Layer 1
10
75.388020
20
265.592297
11
72.994680
21
266.797310
0
LINE
8
Layer 1
10
72.994680
20
266.797310
11
70.113720
21
257.930660
0
LINE
8
Layer 1
10
70.113720
20
257.930660
11
65.358450
21
259.475790
0
LINE
8
Layer 1
10
65.358450
20
259.475790
11
68.239410
21
268.342950
0
LINE
8
Layer 1
10
68.239410
20
268.342950
11
65.600310
21
268.769514
0
LINE
8
Layer 1
10
65.600310
20
268.769514
11
62.930690
21
268.912940
0
LINE
8
Layer 1
10
62.930690
20
268.912940
11
62.930700
21
268.913000
0
LINE
8
Layer 1
10
62.964300
20
248.913200
11
63.971968
21
248.811664
0
LINE
8
Layer 1
10
63.971968
20
248.811664
11
64.910524
21
248.520369
0
LINE
8
Layer 1
10
64.910524
20
248.520369
11
65.759860
21
248.059419
0
LINE
8
Layer 1
10
65.759860
20
248.059419
11
66.499870
21
247.448918
0
LINE
8
Layer 1
10
66.499870
20
247.448918
11
67.110448
21
246.708971
0
LINE
8
Layer 1
10
67.110448
20
246.708971
11
67.571487
21
245.859683
0
LINE
8
Layer 1
10
67.571487
20
245.859683
11
67.862879
21
244.921158
0
LINE
8
Layer 1
10
67.862879
20
244.921158
11
67.964520
21
243.913500
0
LINE
8
Layer 1
10
67.964520
20
243.913500
11
67.867589
21
242.933436
0
LINE
8
Layer 1
10
67.867589
20
242.933436
11
67.583957
21
241.999968
0
LINE
8
Layer 1
10
67.583957
20
241.999968
11
67.124489
21
241.139329
0
LINE
8
Layer 1
10
67.124489
20
241.139329
11
66.500050
21
240.377753
0
LINE
8
Layer 1
10
66.500050
20
240.377753
11
65.738473
21
239.753316
0
LINE
8
Layer 1
10
65.738473
20
239.753316
11
64.877833
21
239.293849
0
LINE
8
Layer 1
10
64.877833
20
239.293849
11
63.944364
21
239.010219
0
LINE
8
Layer 1
10
63.944364
20
239.010219
11
62.964300
21
238.913290
0
LINE
8
Layer 1
10
62.964300
20
238.913290
11
61.984237
21
239.010221
0
LINE
8
Layer 1
10
61.984237
20
239.010221
11
61.050770
21
239.293852
0
LINE
8
Layer 1
10
61.050770
20
239.293852
11
60.190132
21
239.753319
0
LINE
8
Layer 1
10
60.190132
20
239.753319
11
59.428556
21
240.377756
0
LINE
8
Layer 1
10
59.428556
20
240.377756
11
58.804119
21
241.139332
0
LINE
8
Layer 1
10
58.804119
20
241.139332
11
58.344652
21
241.999970
0
LINE
8
Layer 1
10
58.344652
20
241.999970
11
58.061021
21
242.933437
0
LINE
8
Layer 1
10
58.061021
20
242.933437
11
57.964090
21
243.913500
0
LINE
8
Layer 1
10
57.964090
20
243.913500
11
58.065730
21
244.921156
0
LINE
8
Layer 1
10
58.065730
20
244.921156
11
58.357122
21
245.859680
0
LINE
8
Layer 1
10
58.357122
20
245.859680
11
58.818160
21
246.708968
0
LINE
8
Layer 1
10
58.818160
20
246.708968
11
59.428736
21
247.448914
0
LINE
8
Layer 1
10
59.428736
20
247.448914
11
60.168745
21
248.059415
0
LINE
8
Layer 1
10
60.168745
20
248.059415
11
61.018080
21
248.520366
0
LINE
8
Layer 1
10
61.018080
20
248.520366
11
61.956633
21
248.811663
0
LINE
8
Layer 1
10
61.956633
20
248.811663
11
62.964300
21
248.913200
0
LINE
8
Layer 1
10
62.964300
20
248.913200
11
62.964300
21
248.913200
0
LINE
8
Layer 1
10
184.987000
20
268.913000
11
182.430930
21
268.783931
0
LINE
8
Layer 1
10
182.430930
20
268.783931
11
179.948695
21
268.405102
0
LINE
8
Layer 1
10
179.948695
20
268.405102
11
177.552861
21
267.789079
0
LINE
8
Layer 1
10
177.552861
20
267.789079
11
175.255993
21
266.948427
0
LINE
8
Layer 1
10
175.255993
20
266.948427
11
173.070658
21
265.895712
0
LINE
8
Layer 1
10
173.070658
20
265.895712
11
171.009421
21
264.643499
0
LINE
8
Layer 1
10
171.009421
20
264.643499
11
169.084849
21
263.204356
0
LINE
8
Layer 1
10
169.084849
20
263.204356
11
167.309507
21
261.590846
0
LINE
8
Layer 1
10
167.309507
20
261.590846
11
165.695962
21
259.815537
0
LINE
8
Layer 1
10
165.695962
20
259.815537
11
164.256780
21
257.890994
0
LINE
8
Layer 1
10
164.256780
20
257.890994
11
163.004527
21
255.829782
0
LINE
8
Layer 1
10
163.004527
20
255.829782
11
161.951768
21
253.644468
0
LINE
8
Layer 1
10
161.951768
20
253.644468
11
161.111070
21
251.347617
0
LINE
8
Layer 1
10
161.111070
20
251.347617
11
160.494998
21
248.951794
0
LINE
8
Layer 1
10
160.494998
20
248.951794
11
160.116120
21
246.469567
0
LINE
8
Layer 1
10
160.116120
20
246.469567
11
159.987000
21
243.913500
0
LINE
8
Layer 1
10
159.987000
20
243.913500
11
160.109333
21
241.442557
0
LINE
8
Layer 1
10
160.109333
20
241.442557
11
160.471807
21
239.013467
0
LINE
8
Layer 1
10
160.471807
20
239.013467
11
161.067629
21
236.642621
0
LINE
8
Layer 1
10
161.067629
20
236.642621
11
161.890012
21
234.346414
0
LINE
8
Layer 1
10
161.890012
20
234.346414
11
162.932163
21
232.141239
0
LINE
8
Layer 1
10
162.932163
20
232.141239
11
164.187294
21
230.043487
0
LINE
8
Layer 1
10
164.187294
20
230.043487
11
165.648613
21
228.069554
0
LINE
8
Layer 1
10
165.648613
20
228.069554
11
167.309330
21
226.235830
0
LINE
8
Layer 1
10
167.309330
20
226.235830
11
169.143054
21
224.575113
0
LINE
8
Layer 1
10
169.143054
20
224.575113
11
171.116987
21
223.113794
0
LINE
8
Layer 1
10
171.116987
20
223.113794
11
173.214739
21
221.858663
0
LINE
8
Layer 1
10
173.214739
20
221.858663
11
175.419914
21
220.816512
0
LINE
8
Layer 1
10
175.419914
20
220.816512
11
177.716121
21
219.994129
0
LINE
8
Layer 1
10
177.716121
20
219.994129
11
180.086967
21
219.398307
0
LINE
8
Layer 1
10
180.086967
20
219.398307
11
182.516057
21
219.035833
0
LINE
8
Layer 1
10
182.516057
20
219.035833
11
184.987000
21
218.913500
0
LINE
8
Layer 1
10
184.987000
20
218.913500
11
187.457943
21
219.035833
0
LINE
8
Layer 1
10
187.457943
20
219.035833
11
189.887033
21
219.398307
0
LINE
8
Layer 1
10
189.887033
20
219.398307
11
192.257879
21
219.994129
0
LINE
8
Layer 1
10
192.257879
20
219.994129
11
194.554086
21
220.816512
0
LINE
8
Layer 1
10
194.554086
20
220.816512
11
196.759261
21
221.858663
0
LINE
8
Layer 1
10
196.759261
20
221.858663
11
198.857013
21
223.113794
0
LINE
8
Layer 1
10
198.857013
20
223.113794
11
200.830946
21
224.575113
0
LINE
8
Layer 1
10
200.830946
20
224.575113
11
202.664670
21
226.235830
0
LINE
8
Layer 1
10
202.664670
20
226.235830
11
204.325387
21
228.069554
0
LINE
8
Layer 1
10
204.325387
20
228.069554
11
205.786706
21
230.043487
0
LINE
8
Layer 1
10
205.786706
20
230.043487
11
207.041837
21
232.141239
0
LINE
8
Layer 1
10
207.041837
20
232.141239
11
208.083988
21
234.346414
0
LINE
8
Layer 1
10
208.083988
20
234.346414
11
208.906371
21
236.642621
0
LINE
8
Layer 1
10
208.906371
20
236.642621
11
209.502193
21
239.013467
0
LINE
8
Layer 1
10
209.502193
20
239.013467
11
209.864667
21
241.442557
0
LINE
8
Layer 1
10
209.864667
20
241.442557
11
209.987000
21
243.913500
0
LINE
8
Layer 1
10
209.987000
20
243.913500
11
209.857880
21
246.469567
0
LINE
8
Layer 1
10
209.857880
20
246.469567
11
209.479002
21
248.951794
0
LINE
8
Layer 1
10
209.479002
20
248.951794
11
208.862930
21
251.347617
0
LINE
8
Layer 1
10
208.862930
20
251.347617
11
208.022232
21
253.644468
0
LINE
8
Layer 1
10
208.022232
20
253.644468
11
206.969473
21
255.829782
0
LINE
8
Layer 1
10
206.969473
20
255.829782
11
205.717220
21
257.890994
0
LINE
8
Layer 1
10
205.717220
20
257.890994
11
204.278038
21
259.815537
0
LINE
8
Layer 1
10
204.278038
20
259.815537
11
202.664493
21
261.590846
0
LINE
8
Layer 1
10
202.664493
20
261.590846
11
200.889151
21
263.204356
0
LINE
8
Layer 1
10
200.889151
20
263.204356
11
198.964579
21
264.643499
0
LINE
8
Layer 1
10
198.964579
20
264.643499
11
196.903342
21
265.895712
0
LINE
8
Layer 1
10
196.903342
20
265.895712
11
194.718007
21
266.948427
0
LINE
8
Layer 1
10
194.718007
20
266.948427
11
192.421139
21
267.789079
0
LINE
8
Layer 1
10
192.421139
20
267.789079
11
190.025305
21
268.405102
0
LINE
8
Layer 1
10
190.025305
20
268.405102
11
187.543070
21
268.783931
0
LINE
8
Layer 1
10
187.543070
20
268.783931
11
184.987000
21
268.913000
0
LINE
8
Layer 1
10
184.987000
20
268.913000
11
184.987000
21
268.913000
0
LINE
8
Layer 1
10
184.987000
20
248.913200
11
185.994667
21
248.811663
0
LINE
8
Layer 1
10
185.994667
20
248.811663
11
186.933220
21
248.520366
0
LINE
8
Layer 1
10
186.933220
20
248.520366
11
187.782555
21
248.059415
0
LINE
8
Layer 1
10
187.782555
20
248.059415
11
188.522564
21
247.448914
0
LINE
8
Layer 1
10
188.522564
20
247.448914
11
189.133140
21
246.708968
0
LINE
8
Layer 1
10
189.133140
20
246.708968
11
189.594178
21
245.859680
0
LINE
8
Layer 1
10
189.594178
20
245.859680
11
189.885570
21
244.921156
0
LINE
8
Layer 1
10
189.885570
20
244.921156
11
189.987210
21
243.913500
0
LINE
8
Layer 1
10
189.987210
20
243.913500
11
189.890279
21
242.933437
0
LINE
8
Layer 1
10
189.890279
20
242.933437
11
189.606648
21
241.999970
0
LINE
8
Layer 1
10
189.606648
20
241.999970
11
189.147181
21
241.139332
0
LINE
8
Layer 1
10
189.147181
20
241.139332
11
188.522744
21
240.377756
0
LINE
8
Layer 1
10
188.522744
20
240.377756
11
187.761168
21
239.753319
0
LINE
8
Layer 1
10
187.761168
20
239.753319
11
186.900530
21
239.293852
0
LINE
8
Layer 1
10
186.900530
20
239.293852
11
185.967063
21
239.010221
0
LINE
8
Layer 1
10
185.967063
20
239.010221
11
184.987000
21
238.913290
0
LINE
8
Layer 1
10
184.987000
20
238.913290
11
184.006937
21
239.010221
0
LINE
8
Layer 1
10
184.006937
20
239.010221
11
183.073470
21
239.293852
0
LINE
8
Layer 1
10
183.073470
20
239.293852
11
182.212832
21
239.753319
0
LINE
8
Layer 1
10
182.212832
20
239.753319
11
181.451256
21
240.377756
0
LINE
8
Layer 1
10
181.451256
20
240.377756
11
180.826819
21
241.139332
0
LINE
8
Layer 1
10
180.826819
20
241.139332
11
180.367352
21
241.999970
0
LINE
8
Layer 1
10
180.367352
20
241.999970
11
180.083721
21
242.933437
0
LINE
8
Layer 1
10
180.083721
20
242.933437
11
179.986790
21
243.913500
0
LINE
8
Layer 1
10
179.986790
20
243.913500
11
180.088430
21
244.921156
0
LINE
8
Layer 1
10
180.088430
20
244.921156
11
180.379822
21
245.859680
0
LINE
8
Layer 1
10
180.379822
20
245.859680
11
180.840860
21
246.708968
0
LINE
8
Layer 1
10
180.840860
20
246.708968
11
181.451436
21
247.448914
0
LINE
8
Layer 1
10
181.451436
20
247.448914
11
182.191445
21
248.059415
0
LINE
8
Layer 1
10
182.191445
20
248.059415
11
183.040780
21
248.520366
0
LINE
8
Layer 1
10
183.040780
20
248.520366
11
183.979333
21
248.811663
0
LINE
8
Layer 1
10
183.979333
20
248.811663
11
184.987000
21
248.913200
0
LINE
8
Layer 1
10
184.987000
20
248.913200
11
184.987000
21
248.913200
0
LINE
8
Layer 1
10
123.918000
20
268.913000
11
121.361930
21
268.783931
0
LINE
8
Layer 1
10
121.361930
20
268.783931
11
118.879695
21
268.405102
0
LINE
8
Layer 1
10
118.879695
20
268.405102
11
116.483861
21
267.789079
0
LINE
8
Layer 1
10
116.483861
20
267.789079
11
114.186993
21
266.948427
0
LINE
8
Layer 1
10
114.186993
20
266.948427
11
112.001658
21
265.895712
0
LINE
8
Layer 1
10
112.001658
20
265.895712
11
109.940421
21
264.643499
0
LINE
8
Layer 1
10
109.940421
20
264.643499
11
108.015849
21
263.204356
0
LINE
8
Layer 1
10
108.015849
20
263.204356
11
106.240507
21
261.590846
0
LINE
8
Layer 1
10
106.240507
20
261.590846
11
104.626962
21
259.815537
0
LINE
8
Layer 1
10
104.626962
20
259.815537
11
103.187780
21
257.890994
0
LINE
8
Layer 1
10
103.187780
20
257.890994
11
101.935527
21
255.829782
0
LINE
8
Layer 1
10
101.935527
20
255.829782
11
100.882768
21
253.644468
0
LINE
8
Layer 1
10
100.882768
20
253.644468
11
100.042070
21
251.347617
0
LINE
8
Layer 1
10
100.042070
20
251.347617
11
99.425998
21
248.951794
0
LINE
8
Layer 1
10
99.425998
20
248.951794
11
99.047120
21
246.469567
0
LINE
8
Layer 1
10
99.047120
20
246.469567
11
98.918000
21
243.913500
0
LINE
8
Layer 1
10
98.918000
20
243.913500
11
99.040333
21
241.442557
0
LINE
8
Layer 1
10
99.040333
20
241.442557
11
99.402807
21
239.013467
0
LINE
8
Layer 1
10
99.402807
20
239.013467
11
99.998629
21
236.642621
0
LINE
8
Layer 1
10
99.998629
20
236.642621
11
100.821012
21
234.346414
0
LINE
8
Layer 1
10
100.821012
20
234.346414
11
101.863163
21
232.141239
0
LINE
8
Layer 1
10
101.863163
20
232.141239
11
103.118294
21
230.043487
0
LINE
8
Layer 1
10
103.118294
20
230.043487
11
104.579613
21
228.069554
0
LINE
8
Layer 1
10
104.579613
20
228.069554
11
106.240330
21
226.235830
0
LINE
8
Layer 1
10
106.240330
20
226.235830
11
108.074054
21
224.575113
0
LINE
8
Layer 1
10
108.074054
20
224.575113
11
110.047987
21
223.113794
0
LINE
8
Layer 1
10
110.047987
20
223.113794
11
112.145739
21
221.858663
0
LINE
8
Layer 1
10
112.145739
20
221.858663
11
114.350914
21
220.816512
0
LINE
8
Layer 1
10
114.350914
20
220.816512
11
116.647121
21
219.994129
0
LINE
8
Layer 1
10
116.647121
20
219.994129
11
119.017967
21
219.398307
0
LINE
8
Layer 1
10
119.017967
20
219.398307
11
121.447057
21
219.035833
0
LINE
8
Layer 1
10
121.447057
20
219.035833
11
123.918000
21
218.913500
0
LINE
8
Layer 1
10
123.918000
20
218.913500
11
126.388943
21
219.035833
0
LINE
8
Layer 1
10
126.388943
20
219.035833
11
128.818033
21
219.398307
0
LINE
8
Layer 1
10
128.818033
20
219.398307
11
131.188879
21
219.994129
0
LINE
8
Layer 1
10
131.188879
20
219.994129
11
133.485086
21
220.816512
0
LINE
8
Layer 1
10
133.485086
20
220.816512
11
135.690261
21
221.858663
0
LINE
8
Layer 1
10
135.690261
20
221.858663
11
137.788013
21
223.113794
0
LINE
8
Layer 1
10
137.788013
20
223.113794
11
139.761946
21
224.575113
0
LINE
8
Layer 1
10
139.761946
20
224.575113
11
141.595670
21
226.235830
0
LINE
8
Layer 1
10
141.595670
20
226.235830
11
143.256387
21
228.069554
0
LINE
8
Layer 1
10
143.256387
20
228.069554
11
144.717706
21
230.043487
0
LINE
8
Layer 1
10
144.717706
20
230.043487
11
145.972837
21
232.141239
0
LINE
8
Layer 1
10
145.972837
20
232.141239
11
147.014988
21
234.346414
0
LINE
8
Layer 1
10
147.014988
20
234.346414
11
147.837371
21
236.642621
0
LINE
8
Layer 1
10
147.837371
20
236.642621
11
148.433193
21
239.013467
0
LINE
8
Layer 1
10
148.433193
20
239.013467
11
148.795667
21
241.442557
0
LINE
8
Layer 1
10
148.795667
20
241.442557
11
148.918000
21
243.913500
0
LINE
8
Layer 1
10
148.918000
20
243.913500
11
148.788880
21
246.469567
0
LINE
8
Layer 1
10
148.788880
20
246.469567
11
148.410002
21
248.951794
0
LINE
8
Layer 1
10
148.410002
20
248.951794
11
147.793930
21
251.347617
0
LINE
8
Layer 1
10
147.793930
20
251.347617
11
146.953232
21
253.644468
0
LINE
8
Layer 1
10
146.953232
20
253.644468
11
145.900473
21
255.829782
0
LINE
8
Layer 1
10
145.900473
20
255.829782
11
144.648220
21
257.890994
0
LINE
8
Layer 1
10
144.648220
20
257.890994
11
143.209038
21
259.815537
0
LINE
8
Layer 1
10
143.209038
20
259.815537
11
141.595493
21
261.590846
0
LINE
8
Layer 1
10
141.595493
20
261.590846
11
139.820151
21
263.204356
0
LINE
8
Layer 1
10
139.820151
20
263.204356
11
137.895579
21
264.643499
0
LINE
8
Layer 1
10
137.895579
20
264.643499
11
135.834342
21
265.895712
0
LINE
8
Layer 1
10
135.834342
20
265.895712
11
133.649007
21
266.948427
0
LINE
8
Layer 1
10
133.649007
20
266.948427
11
131.352139
21
267.789079
0
LINE
8
Layer 1
10
131.352139
20
267.789079
11
128.956305
21
268.405102
0
LINE
8
Layer 1
10
128.956305
20
268.405102
11
126.474070
21
268.783931
0
LINE
8
Layer 1
10
126.474070
20
268.783931
11
123.918000
21
268.913000
0
LINE
8
Layer 1
10
123.918000
20
268.913000
11
123.918000
21
268.913000
0
LINE
8
Layer 1
10
123.918000
20
248.913200
11
124.925667
21
248.811663
0
LINE
8
Layer 1
10
124.925667
20
248.811663
11
125.864220
21
248.520366
0
LINE
8
Layer 1
10
125.864220
20
248.520366
11
126.713555
21
248.059415
0
LINE
8
Layer 1
10
126.713555
20
248.059415
11
127.453564
21
247.448914
0
LINE
8
Layer 1
10
127.453564
20
247.448914
11
128.064140
21
246.708968
0
LINE
8
Layer 1
10
128.064140
20
246.708968
11
128.525178
21
245.859680
0
LINE
8
Layer 1
10
128.525178
20
245.859680
11
128.816570
21
244.921156
0
LINE
8
Layer 1
10
128.816570
20
244.921156
11
128.918210
21
243.913500
0
LINE
8
Layer 1
10
128.918210
20
243.913500
11
128.821279
21
242.933437
0
LINE
8
Layer 1
10
128.821279
20
242.933437
11
128.537648
21
241.999970
0
LINE
8
Layer 1
10
128.537648
20
241.999970
11
128.078181
21
241.139332
0
LINE
8
Layer 1
10
128.078181
20
241.139332
11
127.453744
21
240.377756
0
LINE
8
Layer 1
10
127.453744
20
240.377756
11
126.692168
21
239.753319
0
LINE
8
Layer 1
10
126.692168
20
239.753319
11
125.831530
21
239.293852
0
LINE
8
Layer 1
10
125.831530
20
239.293852
11
124.898063
21
239.010221
0
LINE
8
Layer 1
10
124.898063
20
239.010221
11
123.918000
21
238.913290
0
LINE
8
Layer 1
10
123.918000
20
238.913290
11
122.937937
21
239.010221
0
LINE
8
Layer 1
10
122.937937
20
239.010221
11
122.004470
21
239.293852
0
LINE
8
Layer 1
10
122.004470
20
239.293852
11
121.143832
21
239.753319
0
LINE
8
Layer 1
10
121.143832
20
239.753319
11
120.382256
21
240.377756
0
LINE
8
Layer 1
10
120.382256
20
240.377756
11
119.757819
21
241.139332
0
LINE
8
Layer 1
10
119.757819
20
241.139332
11
119.298352
21
241.999970
0
LINE
8
Layer 1
10
119.298352
20
241.999970
11
119.014721
21
242.933437
0
LINE
8
Layer 1
10
119.014721
20
242.933437
11
118.917790
21
243.913500
0
LINE
8
Layer 1
10
118.917790
20
243.913500
11
119.019430
21
244.921156
0
LINE
8
Layer 1
10
119.019430
20
244.921156
11
119.310822
21
245.859680
0
LINE
8
Layer 1
10
119.310822
20
245.859680
11
119.771860
21
246.708968
0
LINE
8
Layer 1
10
119.771860
20
246.708968
11
120.382436
21
247.448914
0
LINE
8
Layer 1
10
120.382436
20
247.448914
11
121.122445
21
248.059415
0
LINE
8
Layer 1
10
121.122445
20
248.059415
11
121.971780
21
248.520366
0
LINE
8
Layer 1
10
121.971780
20
248.520366
11
122.910333
21
248.811663
0
LINE
8
Layer 1
10
122.910333
20
248.811663
11
123.918000
21
248.913200
0
LINE
8
Layer 1
10
123.918000
20
248.913200
11
123.918000
21
248.913200
 0 
ENDSEC
 0 
EOF