999
"DXF R12 Output" (www.mydxf.blogspot.com)
 0 
SECTION
 2 
HEADER
 9 
$ACADVER
 1 
AC1009
 9 
$EXTMIN
 10 
 0 
 20 
 0 
 9 
$EXTMAX
 10 
 8.5 
 20 
 11 
 0 
ENDSEC
 0 
SECTION
 2 
ENTITIES
0
LINE
8
Layer 1
10
0.000014
20
60.422800
11
0.000014
21
-0.000420
0
LINE
8
Layer 1
10
0.000014
20
-0.000420
11
145.056000
21
-0.000420
0
LINE
8
Layer 1
10
145.056000
20
-0.000420
11
145.056000
21
60.422800
0
LINE
8
Layer 1
10
145.056000
20
60.422800
11
0.000014
21
60.422800
0
LINE
8
Layer 1
10
37.836414
20
45.068200
11
39.696300
21
45.068100
0
LINE
8
Layer 1
10
39.696300
20
45.068100
11
39.696300
21
21.062400
0
LINE
8
Layer 1
10
39.696300
20
21.062400
11
37.836500
21
21.062400
0
LINE
8
Layer 1
10
37.836500
20
21.062400
11
37.836414
21
45.068200
0
LINE
8
Layer 1
10
43.395244
20
45.068200
11
45.254600
21
45.068100
0
LINE
8
Layer 1
10
45.254600
20
45.068100
11
45.254600
21
21.062400
0
LINE
8
Layer 1
10
45.254600
20
21.062400
11
43.395300
21
21.062400
0
LINE
8
Layer 1
10
43.395300
20
21.062400
11
43.395244
21
45.068200
0
LINE
8
Layer 1
10
112.955844
20
45.068200
11
114.815000
21
45.068100
0
LINE
8
Layer 1
10
114.815000
20
45.068100
11
114.815000
21
21.062400
0
LINE
8
Layer 1
10
114.815000
20
21.062400
11
112.956000
21
21.062400
0
LINE
8
Layer 1
10
112.956000
20
21.062400
11
112.955844
21
45.068200
0
LINE
8
Layer 1
10
125.595944
20
45.068200
11
127.456000
21
45.068100
0
LINE
8
Layer 1
10
127.456000
20
45.068100
11
127.456000
21
21.062400
0
LINE
8
Layer 1
10
127.456000
20
21.062400
11
125.596000
21
21.062400
0
LINE
8
Layer 1
10
125.596000
20
21.062400
11
125.596000
21
22.867400
0
LINE
8
Layer 1
10
125.596000
20
22.867400
11
124.777700
21
21.907064
0
LINE
8
Layer 1
10
124.777700
20
21.907064
11
123.924780
21
21.185850
0
LINE
8
Layer 1
10
123.924780
20
21.185850
11
123.017223
21
20.734675
0
LINE
8
Layer 1
10
123.017223
20
20.734675
11
122.035490
21
20.584340
0
LINE
8
Layer 1
10
122.035490
20
20.584340
11
121.097148
21
20.732785
0
LINE
8
Layer 1
10
121.097148
20
20.732785
11
120.260220
21
21.178157
0
LINE
8
Layer 1
10
120.260220
20
21.178157
11
119.524670
21
21.920511
0
LINE
8
Layer 1
10
119.524670
20
21.920511
11
118.890460
21
22.959900
0
LINE
8
Layer 1
10
118.890460
20
22.959900
11
118.384214
21
24.262593
0
LINE
8
Layer 1
10
118.384214
20
24.262593
11
118.022647
21
25.794800
0
LINE
8
Layer 1
10
118.022647
20
25.794800
11
117.805729
21
27.556484
0
LINE
8
Layer 1
10
117.805729
20
27.556484
11
117.733430
21
29.547610
0
LINE
8
Layer 1
10
117.733430
20
29.547610
11
117.832184
21
31.618735
0
LINE
8
Layer 1
10
117.832184
20
31.618735
11
118.128750
21
33.450730
0
LINE
8
Layer 1
10
118.128750
20
33.450730
11
118.603409
21
35.036078
0
LINE
8
Layer 1
10
118.603409
20
35.036078
11
119.216540
21
36.366830
0
LINE
8
Layer 1
10
119.216540
20
36.366830
11
119.943744
21
37.400461
0
LINE
8
Layer 1
10
119.943744
20
37.400461
11
120.779750
21
38.156390
0
LINE
8
Layer 1
10
120.779750
20
38.156390
11
121.495639
21
38.544766
0
LINE
8
Layer 1
10
121.495639
20
38.544766
11
122.229790
21
38.742920
0
LINE
8
Layer 1
10
122.229790
20
38.742920
11
122.230000
21
36.016500
0
LINE
8
Layer 1
10
122.230000
20
36.016500
11
121.277838
21
35.461049
0
LINE
8
Layer 1
10
121.277838
20
35.461049
11
120.522610
21
34.422800
0
LINE
8
Layer 1
10
120.522610
20
34.422800
11
120.141844
21
33.485615
0
LINE
8
Layer 1
10
120.141844
20
33.485615
11
119.869901
21
32.371065
0
LINE
8
Layer 1
10
119.869901
20
32.371065
11
119.652380
21
29.609650
0
LINE
8
Layer 1
10
119.652380
20
29.609650
11
119.820396
21
26.905946
0
LINE
8
Layer 1
10
119.820396
20
26.905946
11
120.324690
21
24.935000
0
LINE
8
Layer 1
10
120.324690
20
24.935000
11
120.711629
21
24.239819
0
LINE
8
Layer 1
10
120.711629
20
24.239819
11
121.199905
21
23.743238
0
LINE
8
Layer 1
10
121.199905
20
23.743238
11
121.789558
21
23.445275
0
LINE
8
Layer 1
10
121.789558
20
23.445275
11
122.480630
21
23.345950
0
LINE
8
Layer 1
10
122.480630
20
23.345950
11
123.276929
21
23.480971
0
LINE
8
Layer 1
10
123.276929
20
23.480971
11
124.083120
21
23.885970
0
LINE
8
Layer 1
10
124.083120
20
23.885970
11
125.596210
21
25.305010
0
LINE
8
Layer 1
10
125.596210
20
25.305010
11
125.596000
21
35.194300
0
LINE
8
Layer 1
10
125.596000
20
35.194300
11
124.250860
21
35.919320
0
LINE
8
Layer 1
10
124.250860
20
35.919320
11
123.779570
21
36.040240
0
LINE
8
Layer 1
10
123.779570
20
36.040240
11
123.780000
21
38.621500
0
LINE
8
Layer 1
10
123.780000
20
38.621500
11
124.182560
21
38.480420
0
LINE
8
Layer 1
10
124.182560
20
38.480420
11
125.596430
21
37.600890
0
LINE
8
Layer 1
10
125.596430
20
37.600890
11
125.595944
21
45.068200
0
LINE
8
Layer 1
10
10.676900
20
44.034100
11
12.635400
21
44.034100
0
LINE
8
Layer 1
10
12.635400
20
44.034100
11
12.635400
21
35.024800
0
LINE
8
Layer 1
10
12.635400
20
35.024800
11
19.984300
21
35.024800
0
LINE
8
Layer 1
10
19.984300
20
35.024800
11
19.984300
21
44.034100
0
LINE
8
Layer 1
10
19.984300
20
44.034100
11
21.942300
21
44.034100
0
LINE
8
Layer 1
10
21.942300
20
44.034100
11
21.942300
21
21.062400
0
LINE
8
Layer 1
10
21.942300
20
21.062400
11
19.984300
21
21.062400
0
LINE
8
Layer 1
10
19.984300
20
21.062400
11
19.984300
21
32.309200
0
LINE
8
Layer 1
10
19.984300
20
32.309200
11
12.635400
21
32.309200
0
LINE
8
Layer 1
10
12.635400
20
32.309200
11
12.635400
21
21.062400
0
LINE
8
Layer 1
10
12.635400
20
21.062400
11
10.676900
21
21.062400
0
LINE
8
Layer 1
10
10.676900
20
21.062400
11
10.676900
21
44.034100
0
LINE
8
Layer 1
10
132.163900
20
44.034100
11
134.379000
21
44.034100
0
LINE
8
Layer 1
10
134.379000
20
44.034100
11
134.122170
21
27.388100
0
LINE
8
Layer 1
10
134.122170
20
27.388100
11
132.441000
21
27.388100
0
LINE
8
Layer 1
10
132.441000
20
27.388100
11
132.163900
21
44.034100
0
LINE
8
Layer 1
10
30.955700
20
38.730000
11
32.145918
21
38.269424
0
LINE
8
Layer 1
10
32.145918
20
38.269424
11
33.079640
21
37.540933
0
LINE
8
Layer 1
10
33.079640
20
37.540933
11
33.787264
21
36.605382
0
LINE
8
Layer 1
10
33.787264
20
36.605382
11
34.299188
21
35.523626
0
LINE
8
Layer 1
10
34.299188
20
35.523626
11
34.645808
21
34.356521
0
LINE
8
Layer 1
10
34.645808
20
34.356521
11
34.857523
21
33.164922
0
LINE
8
Layer 1
10
34.857523
20
33.164922
11
34.997830
21
30.951660
0
LINE
8
Layer 1
10
34.997830
20
30.951660
11
34.997900
21
29.378100
0
LINE
8
Layer 1
10
34.997900
20
29.378100
11
26.858300
21
29.378100
0
LINE
8
Layer 1
10
26.858300
20
29.378100
11
26.934871
21
27.889302
0
LINE
8
Layer 1
10
26.934871
20
27.889302
11
27.164741
21
26.601010
0
LINE
8
Layer 1
10
27.164741
20
26.601010
11
27.661952
21
25.289895
0
LINE
8
Layer 1
10
27.661952
20
25.289895
11
28.439650
21
24.208286
0
LINE
8
Layer 1
10
28.439650
20
24.208286
11
29.484877
21
23.470637
0
LINE
8
Layer 1
10
29.484877
20
23.470637
11
30.784671
21
23.191400
0
LINE
8
Layer 1
10
30.784671
20
23.191400
11
31.915074
21
23.405474
0
LINE
8
Layer 1
10
31.915074
20
23.405474
11
32.972212
21
23.827216
0
LINE
8
Layer 1
10
32.972212
20
23.827216
11
33.909810
21
24.451820
0
LINE
8
Layer 1
10
33.909810
20
24.451820
11
34.681591
21
25.274480
0
LINE
8
Layer 1
10
34.681591
20
25.274480
11
34.780300
21
25.274500
0
LINE
8
Layer 1
10
34.780300
20
25.274500
11
34.780300
21
22.111400
0
LINE
8
Layer 1
10
34.780300
20
22.111400
11
32.843880
21
21.090692
0
LINE
8
Layer 1
10
32.843880
20
21.090692
11
31.830263
21
20.779892
0
LINE
8
Layer 1
10
31.830263
20
20.779892
11
30.804320
21
20.661360
0
LINE
8
Layer 1
10
30.804320
20
20.661360
11
29.131946
21
21.030808
0
LINE
8
Layer 1
10
29.131946
20
21.030808
11
27.805675
21
21.738320
0
LINE
8
Layer 1
10
27.805675
20
21.738320
11
26.787166
21
22.721323
0
LINE
8
Layer 1
10
26.787166
20
22.721323
11
26.038074
21
23.917245
0
LINE
8
Layer 1
10
26.038074
20
23.917245
11
25.520056
21
25.263512
0
LINE
8
Layer 1
10
25.520056
20
25.263512
11
25.194770
21
26.697550
0
LINE
8
Layer 1
10
25.194770
20
26.697550
11
24.969020
21
29.578650
0
LINE
8
Layer 1
10
24.969020
20
29.578650
11
25.221525
21
32.296368
0
LINE
8
Layer 1
10
25.221525
20
32.296368
11
25.495236
21
33.704820
0
LINE
8
Layer 1
10
25.495236
20
33.704820
11
25.902821
21
35.060604
0
LINE
8
Layer 1
10
25.902821
20
35.060604
11
26.470957
21
36.299423
0
LINE
8
Layer 1
10
26.470957
20
36.299423
11
27.226322
21
37.356980
0
LINE
8
Layer 1
10
27.226322
20
37.356980
11
28.195590
21
38.168978
0
LINE
8
Layer 1
10
28.195590
20
38.168978
11
29.405440
21
38.671120
0
LINE
8
Layer 1
10
29.405440
20
38.671120
11
29.405500
21
36.255200
0
LINE
8
Layer 1
10
29.405500
20
36.255200
11
28.765695
21
35.909630
0
LINE
8
Layer 1
10
28.765695
20
35.909630
11
28.236717
21
35.443192
0
LINE
8
Layer 1
10
28.236717
20
35.443192
11
27.473255
21
34.254379
0
LINE
8
Layer 1
10
27.473255
20
34.254379
11
27.039133
21
32.902094
0
LINE
8
Layer 1
10
27.039133
20
32.902094
11
26.858370
21
31.599670
0
LINE
8
Layer 1
10
26.858370
20
31.599670
11
33.188200
21
31.599700
0
LINE
8
Layer 1
10
33.188200
20
31.599700
11
33.068120
21
33.015930
0
LINE
8
Layer 1
10
33.068120
20
33.015930
11
32.735674
21
34.432161
0
LINE
8
Layer 1
10
32.735674
20
34.432161
11
32.071386
21
35.606639
0
LINE
8
Layer 1
10
32.071386
20
35.606639
11
31.577465
21
36.027673
0
LINE
8
Layer 1
10
31.577465
20
36.027673
11
30.955780
21
36.297610
0
LINE
8
Layer 1
10
30.955780
20
36.297610
11
30.955700
21
38.730000
0
LINE
8
Layer 1
10
97.041600
20
38.707800
11
97.912466
21
38.434706
0
LINE
8
Layer 1
10
97.912466
20
38.434706
11
98.700792
21
37.946038
0
LINE
8
Layer 1
10
98.700792
20
37.946038
11
99.406375
21
37.241388
0
LINE
8
Layer 1
10
99.406375
20
37.241388
11
100.029010
21
36.320350
0
LINE
8
Layer 1
10
100.029010
20
36.320350
11
100.634765
21
34.990693
0
LINE
8
Layer 1
10
100.634765
20
34.990693
11
101.067385
21
33.439284
0
LINE
8
Layer 1
10
101.067385
20
33.439284
11
101.326920
21
31.666105
0
LINE
8
Layer 1
10
101.326920
20
31.666105
11
101.413420
21
29.671140
0
LINE
8
Layer 1
10
101.413420
20
29.671140
11
101.326920
21
27.676169
0
LINE
8
Layer 1
10
101.326920
20
27.676169
11
101.067385
21
25.902989
0
LINE
8
Layer 1
10
101.067385
20
25.902989
11
100.634765
21
24.351582
0
LINE
8
Layer 1
10
100.634765
20
24.351582
11
100.029010
21
23.021930
0
LINE
8
Layer 1
10
100.029010
20
23.021930
11
99.277877
21
21.955496
0
LINE
8
Layer 1
10
99.277877
20
21.955496
11
98.409226
21
21.193755
0
LINE
8
Layer 1
10
98.409226
20
21.193755
11
97.423135
21
20.736709
0
LINE
8
Layer 1
10
97.423135
20
20.736709
11
96.319680
21
20.584360
0
LINE
8
Layer 1
10
96.319680
20
20.584360
11
95.207649
21
20.736709
0
LINE
8
Layer 1
10
95.207649
20
20.736709
11
94.215600
21
21.193755
0
LINE
8
Layer 1
10
94.215600
20
21.193755
11
93.343476
21
21.955496
0
LINE
8
Layer 1
10
93.343476
20
21.955496
11
92.591220
21
23.021930
0
LINE
8
Layer 1
10
92.591220
20
23.021930
11
91.989698
21
24.351582
0
LINE
8
Layer 1
10
91.989698
20
24.351582
11
91.559966
21
25.902989
0
LINE
8
Layer 1
10
91.559966
20
25.902989
11
91.302084
21
27.676169
0
LINE
8
Layer 1
10
91.302084
20
27.676169
11
91.216110
21
29.671140
0
LINE
8
Layer 1
10
91.216110
20
29.671140
11
91.302084
21
31.666105
0
LINE
8
Layer 1
10
91.302084
20
31.666105
11
91.559966
21
33.439284
0
LINE
8
Layer 1
10
91.559966
20
33.439284
11
91.989698
21
34.990693
0
LINE
8
Layer 1
10
91.989698
20
34.990693
11
92.591220
21
36.320350
0
LINE
8
Layer 1
10
92.591220
20
36.320350
11
93.196473
21
37.219472
0
LINE
8
Layer 1
10
93.196473
20
37.219472
11
93.881646
21
37.914100
0
LINE
8
Layer 1
10
93.881646
20
37.914100
11
94.646757
21
38.404322
0
LINE
8
Layer 1
10
94.646757
20
38.404322
11
95.491820
21
38.690230
0
LINE
8
Layer 1
10
95.491820
20
38.690230
11
95.491900
21
36.127600
0
LINE
8
Layer 1
10
95.491900
20
36.127600
11
94.644974
21
35.587250
0
LINE
8
Layer 1
10
94.644974
20
35.587250
11
93.965890
21
34.638810
0
LINE
8
Layer 1
10
93.965890
20
34.638810
11
93.602491
21
33.720869
0
LINE
8
Layer 1
10
93.602491
20
33.720869
11
93.342988
21
32.586950
0
LINE
8
Layer 1
10
93.342988
20
32.586950
11
93.135450
21
29.671150
0
LINE
8
Layer 1
10
93.135450
20
29.671150
11
93.345407
21
26.821029
0
LINE
8
Layer 1
10
93.345407
20
26.821029
11
93.607975
21
25.688154
0
LINE
8
Layer 1
10
93.607975
20
25.688154
11
93.975710
21
24.750000
0
LINE
8
Layer 1
10
93.975710
20
24.750000
11
94.437479
21
24.020990
0
LINE
8
Layer 1
10
94.437479
20
24.020990
11
94.982071
21
23.500177
0
LINE
8
Layer 1
10
94.982071
20
23.500177
11
95.609495
21
23.187637
0
LINE
8
Layer 1
10
95.609495
20
23.187637
11
96.319760
21
23.083440
0
LINE
8
Layer 1
10
96.319760
20
23.083440
11
97.021393
21
23.186660
0
LINE
8
Layer 1
10
97.021393
20
23.186660
11
97.642685
21
23.496282
0
LINE
8
Layer 1
10
97.642685
20
23.496282
11
98.183615
21
24.012248
0
LINE
8
Layer 1
10
98.183615
20
24.012248
11
98.644160
21
24.734500
0
LINE
8
Layer 1
10
98.644160
20
24.734500
11
99.016295
21
25.667842
0
LINE
8
Layer 1
10
99.016295
20
25.667842
11
99.282108
21
26.801706
0
LINE
8
Layer 1
10
99.282108
20
26.801706
11
99.494760
21
29.671150
0
LINE
8
Layer 1
10
99.494760
20
29.671150
11
99.284546
21
32.586950
0
LINE
8
Layer 1
10
99.284546
20
32.586950
11
99.021800
21
33.720869
0
LINE
8
Layer 1
10
99.021800
20
33.720869
11
98.653980
21
34.638810
0
LINE
8
Layer 1
10
98.653980
20
34.638810
11
97.938119
21
35.628469
0
LINE
8
Layer 1
10
97.938119
20
35.628469
11
97.041680
21
36.165840
0
LINE
8
Layer 1
10
97.041680
20
36.165840
11
97.041600
21
38.707800
0
LINE
8
Layer 1
10
52.494400
20
38.701800
11
52.494500
21
36.153700
0
LINE
8
Layer 1
10
52.494500
20
36.153700
11
51.711201
21
35.632389
0
LINE
8
Layer 1
10
51.711201
20
35.632389
11
51.118637
21
34.936328
0
LINE
8
Layer 1
10
51.118637
20
34.936328
11
50.690072
21
34.111610
0
LINE
8
Layer 1
10
50.690072
20
34.111610
11
50.398766
21
33.204327
0
LINE
8
Layer 1
10
50.398766
20
33.204327
11
50.120985
21
31.326440
0
LINE
8
Layer 1
10
50.120985
20
31.326440
11
50.071390
21
29.671410
0
LINE
8
Layer 1
10
50.071390
20
29.671410
11
50.196863
21
27.683856
0
LINE
8
Layer 1
10
50.196863
20
27.683856
11
50.645167
21
25.540480
0
LINE
8
Layer 1
10
50.645167
20
25.540480
11
51.048657
21
24.589846
0
LINE
8
Layer 1
10
51.048657
20
24.589846
11
51.602788
21
23.815642
0
LINE
8
Layer 1
10
51.602788
20
23.815642
11
52.330868
21
23.289661
0
LINE
8
Layer 1
10
52.330868
20
23.289661
11
53.256210
21
23.083700
0
LINE
8
Layer 1
10
53.256210
20
23.083700
11
54.268835
21
23.413271
0
LINE
8
Layer 1
10
54.268835
20
23.413271
11
55.038935
21
24.012704
0
LINE
8
Layer 1
10
55.038935
20
24.012704
11
55.599808
21
24.817623
0
LINE
8
Layer 1
10
55.599808
20
24.817623
11
55.984752
21
25.763654
0
LINE
8
Layer 1
10
55.984752
20
25.763654
11
56.360048
21
27.821555
0
LINE
8
Layer 1
10
56.360048
20
27.821555
11
56.431210
21
29.671410
0
LINE
8
Layer 1
10
56.431210
20
29.671410
11
56.318269
21
31.459505
0
LINE
8
Layer 1
10
56.318269
20
31.459505
11
56.036387
21
33.385828
0
LINE
8
Layer 1
10
56.036387
20
33.385828
11
55.760099
21
34.282589
0
LINE
8
Layer 1
10
55.760099
20
34.282589
11
55.355184
21
35.072026
0
LINE
8
Layer 1
10
55.355184
20
35.072026
11
54.792843
21
35.706844
0
LINE
8
Layer 1
10
54.792843
20
35.706844
11
54.044280
21
36.139750
0
LINE
8
Layer 1
10
54.044280
20
36.139750
11
54.044300
21
38.696100
0
LINE
8
Layer 1
10
54.044300
20
38.696100
11
55.304657
21
38.080685
0
LINE
8
Layer 1
10
55.304657
20
38.080685
11
56.295667
21
37.188216
0
LINE
8
Layer 1
10
56.295667
20
37.188216
11
57.048839
21
36.083980
0
LINE
8
Layer 1
10
57.048839
20
36.083980
11
57.595684
21
34.833264
0
LINE
8
Layer 1
10
57.595684
20
34.833264
11
57.967710
21
33.501354
0
LINE
8
Layer 1
10
57.967710
20
33.501354
11
58.196429
21
32.153537
0
LINE
8
Layer 1
10
58.196429
20
32.153537
11
58.349980
21
29.671330
0
LINE
8
Layer 1
10
58.349980
20
29.671330
11
58.080568
21
26.770907
0
LINE
8
Layer 1
10
58.080568
20
26.770907
11
57.758297
21
25.263422
0
LINE
8
Layer 1
10
57.758297
20
25.263422
11
57.277147
21
23.832131
0
LINE
8
Layer 1
10
57.277147
20
23.832131
11
56.611743
21
22.562817
0
LINE
8
Layer 1
10
56.611743
20
22.562817
11
55.736706
21
21.541260
0
LINE
8
Layer 1
10
55.736706
20
21.541260
11
54.626661
21
20.853244
0
LINE
8
Layer 1
10
54.626661
20
20.853244
11
53.256230
21
20.584550
0
LINE
8
Layer 1
10
53.256230
20
20.584550
11
51.758082
21
21.006297
0
LINE
8
Layer 1
10
51.758082
20
21.006297
11
50.581295
21
21.790626
0
LINE
8
Layer 1
10
50.581295
20
21.790626
11
49.688075
21
22.858260
0
LINE
8
Layer 1
10
49.688075
20
22.858260
11
49.040627
21
24.129922
0
LINE
8
Layer 1
10
49.040627
20
24.129922
11
48.601158
21
25.526337
0
LINE
8
Layer 1
10
48.601158
20
25.526337
11
48.331872
21
26.968227
0
LINE
8
Layer 1
10
48.331872
20
26.968227
11
48.152670
21
29.671330
0
LINE
8
Layer 1
10
48.152670
20
29.671330
11
48.384089
21
32.360505
0
LINE
8
Layer 1
10
48.384089
20
32.360505
11
48.642942
21
33.772893
0
LINE
8
Layer 1
10
48.642942
20
33.772893
11
49.034755
21
35.136780
0
LINE
8
Layer 1
10
49.034755
20
35.136780
11
49.587672
21
36.381889
0
LINE
8
Layer 1
10
49.587672
20
36.381889
11
50.329841
21
37.437945
0
LINE
8
Layer 1
10
50.329841
20
37.437945
11
51.289408
21
38.234670
0
LINE
8
Layer 1
10
51.289408
20
38.234670
11
52.494520
21
38.701790
0
LINE
8
Layer 1
10
52.494520
20
38.701790
11
52.494400
21
38.701800
0
LINE
8
Layer 1
10
74.441900
20
38.295620
11
76.380400
21
38.295600
0
LINE
8
Layer 1
10
76.380400
20
38.295600
11
78.408190
21
24.950700
0
LINE
8
Layer 1
10
78.408190
20
24.950700
11
81.167710
21
38.295600
0
LINE
8
Layer 1
10
81.167710
20
38.295600
11
82.700400
21
38.295600
0
LINE
8
Layer 1
10
82.700400
20
38.295600
11
85.529170
21
24.950700
0
LINE
8
Layer 1
10
85.529170
20
24.950700
11
87.447920
21
38.295600
0
LINE
8
Layer 1
10
87.447920
20
38.295600
11
89.317600
21
38.295600
0
LINE
8
Layer 1
10
89.317600
20
38.295600
11
86.439220
21
21.062500
0
LINE
8
Layer 1
10
86.439220
20
21.062500
11
84.718400
21
21.062600
0
LINE
8
Layer 1
10
84.718400
20
21.062600
11
81.879810
21
34.346000
0
LINE
8
Layer 1
10
81.879810
20
34.346000
11
79.060860
21
21.062600
0
LINE
8
Layer 1
10
79.060860
20
21.062600
11
77.349800
21
21.062600
0
LINE
8
Layer 1
10
77.349800
20
21.062600
11
74.441900
21
38.295620
0
LINE
8
Layer 1
10
104.291800
20
38.295620
11
106.151000
21
38.295600
0
LINE
8
Layer 1
10
106.151000
20
38.295600
11
106.151000
21
35.750100
0
LINE
8
Layer 1
10
106.151000
20
35.750100
11
107.192121
21
36.934045
0
LINE
8
Layer 1
10
107.192121
20
36.934045
11
108.099720
21
37.709150
0
LINE
8
Layer 1
10
108.099720
20
37.709150
11
108.902373
21
38.062485
0
LINE
8
Layer 1
10
108.902373
20
38.062485
11
109.674811
21
38.230484
0
LINE
8
Layer 1
10
109.674811
20
38.230484
11
111.185320
21
38.110170
0
LINE
8
Layer 1
10
111.185320
20
38.110170
11
111.185000
21
35.133100
0
LINE
8
Layer 1
10
111.185000
20
35.133100
11
111.087000
21
35.133100
0
LINE
8
Layer 1
10
111.087000
20
35.133100
11
110.216602
21
35.335915
0
LINE
8
Layer 1
10
110.216602
20
35.335915
11
109.303163
21
35.353768
0
LINE
8
Layer 1
10
109.303163
20
35.353768
11
108.433505
21
35.184026
0
LINE
8
Layer 1
10
108.433505
20
35.184026
11
107.694450
21
34.824060
0
LINE
8
Layer 1
10
107.694450
20
34.824060
11
106.151390
21
33.297020
0
LINE
8
Layer 1
10
106.151390
20
33.297020
11
106.151000
21
21.062600
0
LINE
8
Layer 1
10
106.151000
20
21.062600
11
104.292000
21
21.062600
0
LINE
8
Layer 1
10
104.292000
20
21.062600
11
104.291800
21
38.295620
0
LINE
8
Layer 1
10
62.276300
20
25.459720
11
64.788800
21
25.459700
0
LINE
8
Layer 1
10
64.788800
20
25.459700
11
61.999310
21
15.354400
0
LINE
8
Layer 1
10
61.999310
20
15.354400
11
60.555500
21
15.354400
0
LINE
8
Layer 1
10
60.555500
20
15.354400
11
62.276300
21
25.459720
0
LINE
8
Layer 1
10
132.262200
20
24.318190
11
134.280000
21
24.318200
0
LINE
8
Layer 1
10
134.280000
20
24.318200
11
134.280000
21
21.062600
0
LINE
8
Layer 1
10
134.280000
20
21.062600
11
132.262000
21
21.062600
0
LINE
8
Layer 1
10
132.262000
20
21.062600
11
132.262200
21
24.318190
 0 
ENDSEC
 0 
EOF