<?xml version="1.0" encoding="UTF-8" standalone="no"?>
<!-- Created with Inkscape (http://www.inkscape.org/) -->

<svg
   width="145.05626mm"
   height="60.42318mm"
   viewBox="0 0 145.05626 60.42318"
   version="1.1"
   id="svg5"
   inkscape:version="1.2.2 (b0a84865, 2022-12-01)"
   sodipodi:docname="Sample.svg"
   xmlns:inkscape="http://www.inkscape.org/namespaces/inkscape"
   xmlns:sodipodi="http://sodipodi.sourceforge.net/DTD/sodipodi-0.dtd"
   xmlns="http://www.w3.org/2000/svg"
   xmlns:svg="http://www.w3.org/2000/svg">
  <sodipodi:namedview
     id="namedview7"
     pagecolor="#ffffff"
     bordercolor="#000000"
     borderopacity="0.25"
     inkscape:showpageshadow="2"
     inkscape:pageopacity="0.0"
     inkscape:pagecheckerboard="0"
     inkscape:deskcolor="#d1d1d1"
     inkscape:document-units="mm"
     showgrid="false"
     inkscape:zoom="1.4346008"
     inkscape:cx="293.80996"
     inkscape:cy="171.47628"
     inkscape:window-width="1512"
     inkscape:window-height="828"
     inkscape:window-x="0"
     inkscape:window-y="38"
     inkscape:window-maximized="1"
     inkscape:current-layer="layer1" />
  <defs
     id="defs2" />
  <g
     inkscape:label="Layer 1"
     inkscape:groupmode="layer"
     id="layer1"
     transform="translate(-38.439514,-83.374239)">
    <path
       id="rect111"
       style="fill:#000000;stroke-width:0.600868"
       d="M 38.439514,83.374239 V 143.79742 H 183.49578 V 83.374239 Z m 37.83645,15.354618 h 1.859835 v 24.005773 h -1.859835 z m 5.558834,0 h 1.859318 v 24.005773 h -1.859318 z m 69.560612,0 h 1.85932 v 24.005773 h -1.85932 z m 12.64006,0 h 1.85983 v 24.005773 h -1.85983 v -1.80506 c -0.53409,0.71995 -1.09097,1.28043 -1.67122,1.68155 -0.58025,0.40112 -1.21014,0.60151 -1.88929,0.60151 -1.31875,0 -2.36696,-0.79166 -3.14503,-2.37556 -0.77146,-1.5839 -1.15703,-3.77993 -1.15703,-6.58771 0,-1.46048 0.13157,-2.76148 0.39532,-3.90312 0.27034,-1.14164 0.63282,-2.11392 1.08779,-2.9161 0.44837,-0.78167 0.96977,-1.37816 1.56321,-1.78956 0.47111,-0.32301 0.95458,-0.51715 1.45004,-0.58653 v 2.72645 c -0.70027,0.20967 -1.2697,0.7403 -1.70739,1.5937 -0.58025,1.13136 -0.87023,2.73555 -0.87023,4.81315 0,2.04667 0.22394,3.60499 0.67231,4.67465 0.44838,1.0593 1.16688,1.58905 2.15594,1.58905 0.5275,0 1.0618,-0.18005 1.60249,-0.54002 0.54069,-0.37027 1.04493,-0.84307 1.51309,-1.41904 v -9.88932 c -0.50112,-0.34969 -0.94952,-0.59131 -1.34514,-0.72502 -0.15126,-0.0511 -0.30946,-0.0894 -0.47129,-0.12092 v -2.58124 c 0.13902,0.0399 0.27434,0.0852 0.40256,0.14108 0.44837,0.18513 0.91934,0.47841 1.41387,0.87953 z M 49.116382,99.762903 h 1.958537 v 9.009267 h 7.348905 v -9.009267 h 1.95802 v 22.971727 h -1.95802 v -11.24686 h -7.348905 v 11.24686 h -1.958537 z m 121.486638,0 h 2.21537 l -0.25683,16.646017 h -1.68155 z M 69.395247,105.06697 c 3.542933,0.81689 4.025655,5.14066 4.042131,7.77834 v 1.57355 h -8.139555 c 0,1.0593 0.102041,1.98513 0.306441,2.77709 0.470195,1.85029 1.722922,3.39377 3.619934,3.40961 1.535483,-0.14485 2.998985,-0.8563 3.89692,-2.08308 h 0.0987 v 3.16312 c -1.232636,0.79862 -2.605821,1.43992 -3.975985,1.45004 -4.955216,-0.47882 -5.809675,-5.23111 -5.835302,-8.91729 0.145664,-3.364 0.865666,-8.22372 4.436421,-9.09247 v 2.41588 c -1.862356,0.73666 -2.441249,3.04702 -2.547131,4.65553 h 6.329846 c -0.07163,-1.78086 -0.390966,-4.2064 -2.232422,-4.69791 z m 66.085893,0.0222 c 1.21609,0.22059 2.21262,1.01496 2.98741,2.38745 0.92312,1.62505 1.38441,3.84139 1.38441,6.64921 0,2.80783 -0.46129,5.02417 -1.38441,6.64921 -0.92313,1.62504 -2.15985,2.43757 -3.70933,2.43757 -1.56272,0 -2.80534,-0.81253 -3.72846,-2.43757 -0.91653,-1.62504 -1.37511,-3.84138 -1.37511,-6.64921 0,-2.80782 0.45858,-5.02416 1.37511,-6.64921 0.75373,-1.3352 1.72054,-2.12484 2.9006,-2.36988 v 2.56264 c -0.61979,0.22612 -1.13001,0.71855 -1.52601,1.48879 -0.55382,1.07994 -0.83044,2.7358 -0.83044,4.96766 0,2.15987 0.2798,3.80007 0.84026,4.92115 0.56048,1.11078 1.3418,1.66656 2.34405,1.66656 0.98906,0 1.76394,-0.55056 2.3244,-1.65106 0.56706,-1.11079 0.8506,-2.75621 0.8506,-4.93665 0,-2.23186 -0.28031,-3.88772 -0.84078,-4.96766 -0.41688,-0.81087 -0.95465,-1.31921 -1.6123,-1.52703 z m -44.547156,0.006 v 2.54817 c -2.366885,1.11619 -2.414043,4.58804 -2.423108,6.48229 0.03496,2.29092 0.433506,6.52899 3.184819,6.58771 3.053304,-0.46182 3.164484,-4.48882 3.175,-6.58771 -0.140351,-2.12382 -0.116867,-5.62518 -2.386934,-6.46834 v -2.55643 c 3.748093,1.21367 4.287038,6.07897 4.30568,9.02477 -0.09344,3.53666 -1.069533,9.00561 -5.093746,9.08678 -4.457138,-0.57075 -5.083275,-5.85465 -5.103564,-9.08678 0.129137,-3.27763 0.775805,-8.28675 4.341853,-9.03046 z m 21.947496,0.40618 h 1.93838 l 2.02779,13.34492 2.75952,-13.34492 h 1.53272 l 2.82877,13.34492 1.91875,-13.34492 h 1.86965 l -2.87838,17.23306 h -1.72082 l -2.83859,-13.28343 -2.81895,13.28343 h -1.71101 z m 29.84986,0 h 1.85932 v 2.54558 c 0.7385,-0.92566 1.38825,-1.57851 1.94872,-1.95905 1.0966,-0.60575 2.07511,-0.6508 3.0856,-0.40102 v 2.97708 h -0.0987 c -1.09325,-0.39256 -2.5328,-0.2989 -3.39255,0.30904 -0.53409,0.39084 -1.04853,0.89965 -1.54306,1.52704 v 12.2344 h -1.85932 z m -42.01552,12.83591 h 2.5125 l -2.78949,10.10533 h -1.443839 z m 69.98591,1.14153 h 2.01796 v 3.25562 h -2.01796 z"
       sodipodi:nodetypes="cccccccccccccccccccccccccsscscccccsscscccsccccccccccccccccccccccccccccccccccccccccccssscsccccscscscccscccccccssscsccccccccccccccccccccccsccccccccccc" />
  </g>
</svg>
