<?xml version="1.0" encoding="UTF-8" standalone="no"?>
<!-- Created with Inkscape (http://www.inkscape.org/) -->

<svg
   width="404.46555mm"
   height="198.00032mm"
   viewBox="0 0 404.46555 198.00032"
   version="1.1"
   id="svg8274"
   inkscape:version="1.2.2 (b0a84865, 2022-12-01)"
   sodipodi:docname="ArmLampFirstPrint.svg"
   xmlns:inkscape="http://www.inkscape.org/namespaces/inkscape"
   xmlns:sodipodi="http://sodipodi.sourceforge.net/DTD/sodipodi-0.dtd"
   xmlns="http://www.w3.org/2000/svg"
   xmlns:svg="http://www.w3.org/2000/svg">
  <sodipodi:namedview
     id="namedview8276"
     pagecolor="#ffffff"
     bordercolor="#000000"
     borderopacity="0.25"
     inkscape:showpageshadow="2"
     inkscape:pageopacity="0.0"
     inkscape:pagecheckerboard="0"
     inkscape:deskcolor="#d1d1d1"
     inkscape:document-units="mm"
     showgrid="false"
     inkscape:zoom="0.28813859"
     inkscape:cx="669.81657"
     inkscape:cy="701.05154"
     inkscape:window-width="1512"
     inkscape:window-height="828"
     inkscape:window-x="0"
     inkscape:window-y="38"
     inkscape:window-maximized="1"
     inkscape:current-layer="layer1" />
  <defs
     id="defs8271" />
  <g
     inkscape:label="Layer 1"
     inkscape:groupmode="layer"
     id="layer1"
     transform="translate(114.01355,87.128005)">
    <path
       id="rect5622"
       style="fill:none;stroke:#000000;stroke-width:0.02;stroke-dasharray:none"
       d="m -114.01355,-87.128005 v 8.000029 H 35.98656 v 182.000266 8.00002 h 8.00003 1.99987 8.00003 v -8.00002 -46.0003 h 34.99993 v 33.50028 8.00003 h 8.00003 1.99988 8.00003 V 90.37227 56.87199 h 34.99993 v 21.00027 8.00003 h 8.00003 2.00039 8.00003 V 77.87226 27.87221 h -8.00003 v 50.00005 h -2.00039 V 27.87221 h -8.00003 V 48.87196 H 106.98636 V 15.3722 H 98.98633 V 90.37227 H 96.98645 V 15.3722 H 88.98642 V 48.87196 H 53.98649 V 2.87219 h -8.00003 v 100.0001 H 43.98659 V -87.128005 h -8.00003 z" />
    <path
       id="path11165-3-2"
       style="fill:none;stroke-width:0.02;stroke:#000000;stroke-dasharray:none"
       d="m 127.6223,-86.165789 v 25.878007 h -8.00003 v -25.870772 a 50,50 0 0 0 -22.040517,7.183541 l 15.193387,20.911902 -6.47196,4.702555 -15.191314,-20.909318 a 50,50 0 0 0 -13.627587,18.745109 l 24.587121,7.98866 -2.472197,7.608321 -24.598494,-7.992794 a 50,50 0 0 0 -1.37821,11.592574 50,50 0 0 0 1.37821,11.592574 l 24.598494,-7.992794 2.471677,7.608321 -24.586601,7.988661 A 50,50 0 0 0 91.111356,1.6138663 l 15.191314,-20.9093173 6.47247,4.702552 -15.193387,20.9124151 a 50,50 0 0 0 22.040517,7.1830309 v -25.870776 h 8.00003 v 25.870776 a 50,50 0 0 0 22.04051,-7.1830309 l -15.19339,-20.9124151 6.47196,-4.702035 15.19132,20.9088003 a 50,50 0 0 0 13.62759,-18.7451083 l -24.58713,-7.988661 2.4722,-7.608321 24.5985,7.992794 a 50,50 0 0 0 1.37821,-11.592574 50,50 0 0 0 -1.36426,-11.596708 l -24.61245,7.996928 -2.4722,-7.608321 24.61039,-7.996411 a 50,50 0 0 0 -13.63276,-18.762163 l -15.20941,20.934123 -6.47196,-4.702555 15.20993,-20.93464 a 50,50 0 0 0 -22.05705,-7.168038 z m -3.99976,44.833956 a 5,5 0 0 1 4.9997,5.000212 5,5 0 0 1 -4.9997,4.999695 5,5 0 0 1 -5.00021,-4.999695 5,5 0 0 1 5.00021,-5.000212 z" />
    <path
       id="path12864"
       style="fill:none;stroke-width:0.02;stroke:#000000;stroke-dasharray:none"
       d="m 240.45196,-86.37449 a 50,50 0 0 0 -50.00005,50.000049 50,50 0 0 0 50.00005,50.000046 50,50 0 0 0 50.00005,-50.000046 50,50 0 0 0 -50.00005,-50.000049 z m 0,44.999837 a 5,5 0 0 1 4.9997,5.000212 5,5 0 0 1 -4.9997,5.000211 5,5 0 0 1 -5.00021,-5.000211 5,5 0 0 1 5.00021,-5.000212 z" />
    <path
       id="path12864-5"
       style="fill:none;stroke-width:0.02;stroke:#000000;stroke-dasharray:none"
       d="m -38.101563,-57.441898 a 50,50 0 0 0 -50.00005,50.0000534 50,50 0 0 0 50.00005,50.0000446 50,50 0 0 0 50.00005,-50.0000446 50,50 0 0 0 -50.00005,-50.0000534 z m 0,44.999834 a 5,5 0 0 1 4.9997,5.0002204 5,5 0 0 1 -4.9997,5.00021 5,5 0 0 1 -5.00021,-5.00021 5,5 0 0 1 5.00021,-5.0002204 z" />
  </g>
</svg>
